<?xml version="1.0" encoding="iso-8859-1"?>
<!-- Generator: Adobe Illustrator 19.0.0, SVG Export Plug-In . SVG Version: 6.00 Build 0)  -->
<svg version="1.1" id="Layer_1" xmlns="http://www.w3.org/2000/svg" xmlns:xlink="http://www.w3.org/1999/xlink" x="0px" y="0px"
	 viewBox="0 0 491.52 491.52" style="enable-background:new 0 0 491.52 491.52;" xml:space="preserve">
<g>
	<g>
		<path d="M33.09,482.193c-0.954-1.898-2.015-3.741-3.189-5.516c-0.441-0.665-0.872-1.336-1.342-1.982
			c-1.633-2.246-3.383-4.412-5.354-6.382c-1.975-1.975-4.143-3.727-6.388-5.362c-0.642-0.467-1.309-0.896-1.971-1.333
			c-1.783-1.18-3.633-2.25-5.543-3.206c-0.429-0.214-0.848-0.445-1.282-0.648l-7.955,31.375c-0.22,0.864,0.152,1.465,0.504,1.816
			c0.349,0.344,0.945,0.72,1.813,0.496l31.368-7.95C33.544,483.057,33.309,482.63,33.09,482.193z"/>
	</g>
</g>
<g>
	<g>
		<polygon points="363.819,107.429 213.832,257.42 63.846,407.409 73.977,417.54 84.11,427.669 384.085,127.694 		"/>
	</g>
</g>
<g>
	<g>
		<path d="M62.388,429.129L46.46,413.206l-21.655-21.658l-12.681,50.031c0.147,0.061,0.285,0.142,0.432,0.204
			c0.556,0.234,1.084,0.523,1.634,0.773c1.904,0.862,3.769,1.796,5.588,2.826c0.765,0.432,1.508,0.89,2.256,1.35
			c1.63,1.005,3.209,2.079,4.752,3.216c0.659,0.485,1.326,0.951,1.968,1.458c2.102,1.665,4.14,3.414,6.043,5.317
			c1.899,1.899,3.646,3.933,5.308,6.032c0.509,0.641,0.974,1.309,1.459,1.97c1.141,1.549,2.219,3.136,3.227,4.772
			c0.452,0.733,0.901,1.464,1.326,2.213c1.051,1.856,2.007,3.758,2.884,5.703c0.231,0.511,0.499,1.001,0.717,1.518
			c0.068,0.159,0.156,0.308,0.222,0.468l50.027-12.687L62.388,429.129z"/>
	</g>
</g>
<g>
	<g>
		<polygon points="331.972,75.581 31.993,375.556 52.256,395.82 202.242,245.831 352.229,95.839 		"/>
	</g>
</g>
<g>
	<g>
		<polygon points="394.858,96.659 352.87,54.676 343.561,63.992 369.614,90.044 401.469,121.899 427.53,147.96 436.846,138.643 		
			"/>
	</g>
</g>
<g>
	<g>
		<path d="M407.552,0.002l-43.093,43.084l41.988,41.984l41.988,41.984l43.085-43.085C487.094,67.097,424.432,4.428,407.552,0.002z"
			/>
	</g>
</g>
<g>
	<g>
		
			<rect x="43.705" y="285.088" transform="matrix(0.7072 -0.707 0.707 0.7072 -136.7863 268.5361)" width="424.236" height="28.657"/>
	</g>
</g>
<g>
</g>
<g>
</g>
<g>
</g>
<g>
</g>
<g>
</g>
<g>
</g>
<g>
</g>
<g>
</g>
<g>
</g>
<g>
</g>
<g>
</g>
<g>
</g>
<g>
</g>
<g>
</g>
<g>
</g>
</svg>
